<svg width="99" height="123" viewBox="0 0 99 123" fill="none" xmlns="http://www.w3.org/2000/svg">
<path d="M12.9698 0.991377C12.8425 1.52617 12.3841 3.84365 11.9257 6.16113C11.4928 8.47861 11.0343 10.8725 10.907 11.5092C10.7796 12.1459 10.4232 13.9795 10.143 15.5839C9.8374 17.1883 9.42994 19.3021 9.25162 20.2953C9.04794 21.263 8.81872 22.4855 8.74228 22.9694C8.66593 23.4532 8.43671 24.6502 8.23294 25.6433C7.87647 27.426 5.83911 37.9694 5.17699 41.5602C4.82043 43.4957 3.11418 52.2817 1.2296 62.0101C0.669366 64.9388 0.210922 67.3836 0.210922 67.4345C0.210922 67.4855 14.4215 67.5364 31.7898 67.5364C63.0125 67.5364 63.3686 67.5364 64.7435 67.0016C66.7053 66.2885 68.5132 64.5568 69.5321 62.4939C70.2956 60.9405 70.3725 60.5839 70.3468 58.5975C70.3212 56.713 70.2196 56.2036 69.5825 54.9303C68.6405 53.0457 66.6028 51.1867 64.7692 50.499C63.3686 49.9642 62.9612 49.9642 42.4859 49.9642C31.0258 49.9642 21.5776 49.8879 21.5267 49.7605C21.4502 49.6586 22.2398 45.2274 23.2585 39.9048C24.2771 34.5822 25.7033 27.0695 26.4163 23.224C27.9698 15.1 28.1481 14.1323 29.4724 7.30714C30.0071 4.50577 30.5419 1.72994 30.6438 1.11871L30.8221 0.0491333H22.0106H13.2245L12.9698 0.991377Z" fill="#9077FF"/>
<path d="M35.8636 24.3959C35.7108 24.7525 35.6089 25.2109 35.6089 25.4146C35.6089 25.6184 35.3288 27.1973 34.9978 28.9036C34.6412 30.6099 34.0045 33.8951 33.5716 36.2126C33.1386 38.5301 32.7312 40.6693 32.6547 40.9749L32.5529 41.5606H49.1828C64.9724 41.5606 65.94 41.5861 67.8496 42.07C71.059 42.8849 73.3512 44.1837 75.7194 46.5267C80.5327 51.3145 81.959 57.9358 79.5651 64.4553C77.9604 68.8356 73.8602 72.7574 69.1486 74.3365L67.0605 75.0496L50.3288 75.1256C41.1097 75.1512 33.5716 75.2281 33.5716 75.2784C33.5716 75.3041 33.2914 76.7559 32.9604 78.5126C32.6038 80.2446 32.0945 82.9954 31.7889 84.5993C31.4833 86.204 31.0758 88.3177 30.8976 89.3109C30.6938 90.2785 30.4646 91.5015 30.3882 91.9849C30.3118 92.4691 30.0826 93.6656 29.8789 94.6588C29.7007 95.6264 29.2931 97.7658 28.9876 99.3705C28.7074 100.975 28.3254 102.834 28.1981 103.496L27.918 104.718H24.76C22.2133 104.718 21.6022 104.642 21.6022 104.362C21.6022 104.158 21.9332 102.299 22.3407 100.211C22.7481 98.1484 23.3339 95.1175 23.6395 93.5127C23.9451 91.9089 24.4545 89.2093 24.7855 87.5286C25.1166 85.8479 25.575 83.3772 25.8296 82.0526C26.0589 80.7289 26.4663 78.6655 26.6955 77.469L27.103 75.3041L18.3424 75.2281C13.5038 75.2025 9.50538 75.2281 9.45448 75.2784C9.32715 75.4057 8.99604 77.0104 7.85012 83.0714C7.41712 85.3893 6.78045 88.6491 6.44943 90.3298C5.8891 93.131 4.81952 98.7334 3.87728 103.827C3.67351 104.947 3.39339 106.373 3.26605 107.011C3.13872 107.647 2.50204 110.907 1.86537 114.269C1.22869 117.63 0.617465 120.813 0.49013 121.348C0.311898 122.036 0.337345 122.367 0.541118 122.444C0.71935 122.494 10.193 122.52 21.6022 122.494L42.3577 122.418L43.0452 118.852C43.4272 116.892 43.8092 114.905 43.8857 114.447C43.962 113.988 44.1912 112.766 44.3696 111.773C44.5732 110.754 45.108 107.978 45.5665 105.61C45.9994 103.216 46.7379 99.4465 47.1708 97.2055L47.9604 93.131L57.7653 92.9781C68.2066 92.7996 69.9633 92.622 74.3189 91.1958C85.3707 87.6046 94.1569 78.2325 97.0863 66.8238C101.186 51.0343 93.2662 34.2771 78.3421 27.1973C76.763 26.4333 74.4205 25.5165 73.1727 25.16C68.6396 23.8866 66.1432 23.7338 50.4816 23.7338H36.1182L35.8636 24.3959Z" fill="#9077FF"/>
</svg>
